# xmcd
#
# Track frame offsets:
#	150
#	15230
#	27377
#	40987
#	55440
#	66837
#	78247
#	95175
#	111807
#	125055
#	144202
#	158012
#	169557
#	189947
#	206637
#	224995
#	240950
#	257052
#	271445
#
# Disc length: 3819 seconds
#
# Revision: 1
# Processed by: cddbd v1.5.1PL2 Copyright (c) Steve Scherf et al.
# Submitted via: audiograbber 1.83.01
#
DISCID=0e0ee913
DTITLE=Massimo Ranieri - Frammenti Di...
DYEAR=1900
DGENRE=
TTITLE0=Io Di Piu'
TTITLE1=Amore, Cuore Mio
TTITLE2=Ti Ruberei
TTITLE3=Magia
TTITLE4=Piangi Piangi Ragazzo
TTITLE5=E'Diventato Amore
TTITLE6=Amo Ancora Lei
TTITLE7=Cronaca Di Un Amore
TTITLE8=Jesus
TTITLE9=Adagio Veneziano
TTITLE10=Senza Amore
TTITLE11=Che Pazzia
TTITLE12=Immagina
TTITLE13=Chi Siamo Noi
TTITLE14=Bravo
TTITLE15=Forse E Allora Che Ho Incontrato Dio
TTITLE16=La Prima Volta Insieme
TTITLE17=Ho Gia' Scelto Lei
TTITLE18=Dal Primo Momento Che Ti Ho Visto
EXTD=
EXTT0=
EXTT1=
EXTT2=
EXTT3=
EXTT4=
EXTT5=
EXTT6=
EXTT7=
EXTT8=
EXTT9=
EXTT10=
EXTT11=
EXTT12=
EXTT13=
EXTT14=
EXTT15=
EXTT16=
EXTT17=
EXTT18=
PLAYORDER=
